{"title":"Beethoven 1992 DVDrip English Klam","uid":6499154,"size":1472214035,"categoryP":"video","categoryS":"movies","magnet":"?xt=urn:btih:44f438ccb2273626b957a11964d9f2f0d4a1a6d1&amp;dn=Beethoven+1992+DVDrip+English+Klam&amp;tr=udp%3A%2F%2Ftracker.openbittorrent.com%3A80&amp;tr=udp%3A%2F%2Fopen.demonii.com%3A1337&amp;tr=udp%3A%2F%2Ftracker.coppersurfer.tk%3A6969&amp;tr=udp%3A%2F%2Fexodus.desync.com%3A6969","seeders":8,"leechers":2,"uploader":"Klambake","files":-1,"time":1309183103,"description":"With: Charles Grodin, Bonnie Hunt and Nicholle Tom\n\nDe familie Newton hebben het thuis gezellig, maar ze lijken iets te missen. Dan komt een kleine puppy hun leven binnen lopen. Beethoven, zoals ze hem noemen, groeit echter uit tot een gigantische hond met alle huishoudelijke gevolgen. Dokter Varnick, de lokale dierenarts wil Beethoven gebruiken om mee te experimenteren.\n\nA slobbering St Bernard dog becomes the center of attention for a loving family but its vet secretly wants to kill him. \n\n------------------ Dutch Friends ------------------\nYou can find my Friends at: http://www.Film-Test.nl \n------ They got my dutchs subs ---- and more ------\n\nGeneral:\n\nComplete name                    : Beethoven\\Beethoven.avi\nFormat                           : AVI\nFormat/Info                      : Audio Video Interleave\nFile size                        : 1.37 GiB\nDuration                         : 1h 23mn\nOverall bit rate                 : 2 353 Kbps\n\nVideo:\n\nFormat                           : MPEG-4 Visual\nFormat profile                   : Simple@L3\nFormat settings, BVOP            : No\nFormat settings, QPel            : No\nFormat settings, GMC             : No warppoints\nFormat settings, Matrix          : Default (H.263)\nCodec ID                         : XVID\nCodec ID/Hint                    : XviD\nDuration                         : 1h 23mn\nBit rate                         : 2 150 Kbps\nWidth                            : 652 pixels\nHeight                           : 352 pixels\nDisplay aspect ratio             : 1.852\nFrame rate                       : 25.000 fps\nColor space                      : YUV\nChroma subsampling               : 4:2:0\nBit depth                        : 8 bits\nScan type                        : Progressive\nBits/(Pixel*Frame)               : 0.375\nStream size                      : 1.25 GiB (91%)\nWriting library                  : XviD 1.1.2 (UTC 2006-11-01)\n\nAudio:\n\nFormat                           : AC-3\nFormat/Info                      : Audio Coding 3\nFormat profile                   : Dolby Digital\nMode extension                   : CM (complete main)\nCodec ID                         : 2000\nDuration                         : 1h 23mn\nBit rate mode                    : Constant\nBit rate                         : 192 Kbps\nChannel(s)                       : 2 channels\nChannel positions                : Front: L R\nSampling rate                    : 48.0 KHz\nBit depth                        : 16 bits\nStream size                      : 114 MiB (8%)\nAlignment                        : Aligned on interleaves\nInterleave, duration             : 32 ms (0.80 video frame)\nInterleave, preload duration     : 32 ms\n\n","torrent":{"xt":"urn:btih:44f438ccb2273626b957a11964d9f2f0d4a1a6d1","amp;dn":"Beethoven+1992+DVDrip+English+Klam","amp;tr":["udp%3A%2F%2Ftracker.openbittorrent.com%3A80","udp%3A%2F%2Fopen.demonii.com%3A1337","udp%3A%2F%2Ftracker.coppersurfer.tk%3A6969","udp%3A%2F%2Fexodus.desync.com%3A6969"],"infoHash":"44f438ccb2273626b957a11964d9f2f0d4a1a6d1","infoHashBuffer":{"type":"Buffer","data":[68,244,56,204,178,39,54,38,185,87,161,25,100,217,242,240,212,161,166,209]},"announce":[],"urlList":[]}}